<?xml version="1.0" encoding="UTF-8"?>
<svg xmlns="http://www.w3.org/2000/svg" xmlns:xlink="http://www.w3.org/1999/xlink"
     width="500" height="300" viewBox="0 0 500 300">
<defs>
</defs>
<path d="M0,0 L500,0 L500,300 L0,300 Z" fill="white" id="border" />
<path d="M203.33333333333331,10 L203.33333333333331,250" stroke="lightgrey" />
<text x="203.33333333333331" y="255" font-size="10" text-anchor="middle" dominant-baseline="hanging" font-family="Arial">2018</text>
<path d="M346.66666666666663,10 L346.66666666666663,250" stroke="lightgrey" />
<text x="346.66666666666663" y="255" font-size="10" text-anchor="middle" dominant-baseline="hanging" font-family="Arial">2019</text>
<path d="M60,190.0 L490,190.0" stroke="black" />
<text x="55" y="190.0" font-size="10" text-anchor="end" dominant-baseline="middle" font-family="Arial">0</text>
<path d="M60,130.0 L490,130.0" stroke="lightgrey" />
<text x="55" y="130.0" font-size="10" text-anchor="end" dominant-baseline="middle" font-family="Arial">2</text>
<path d="M60,70.0 L490,70.0" stroke="lightgrey" />
<text x="55" y="70.0" font-size="10" text-anchor="end" dominant-baseline="middle" font-family="Arial">4</text>
<path d="M60,10 L490,10 L490,250 L60,250 Z" fill="none" stroke="black" id="axes" />
<text x="275.0" y="275.0" font-size="16" text-anchor="middle" dominant-baseline="hanging" font-family="Arial">Year</text>
<text x="10" y="130.0" font-size="16" text-anchor="middle" dominant-baseline="hanging" transform="rotate(-90, 10, 130.0)" font-family="Arial">Luck Score</text>
<path d="M203.33333333333331,40.0 L346.66666666666663,190.0" fill="none" stroke="black" />
<circle cx="203.33333333333331" cy="40.0" r="4" fill="#cec962" stroke="black" stroke-width="1.5" />
<circle cx="346.66666666666663" cy="190.0" r="4" fill="#cec962" stroke="black" stroke-width="1.5" />
</svg>