<?xml version="1.0" encoding="UTF-8"?>
<svg xmlns="http://www.w3.org/2000/svg" xmlns:xlink="http://www.w3.org/1999/xlink"
     width="500" height="300" viewBox="0 0 500 300">
<defs>
</defs>
<path d="M0,0 L500,0 L500,300 L0,300 Z" fill="white" id="border" />
<path d="M113.75,10 L113.75,250" stroke="lightgrey" />
<text x="113.75" y="255" font-size="10" text-anchor="middle" dominant-baseline="hanging" font-family="Arial">2018</text>
<path d="M167.5,10 L167.5,250" stroke="lightgrey" />
<text x="167.5" y="255" font-size="10" text-anchor="middle" dominant-baseline="hanging" font-family="Arial">2019</text>
<path d="M221.25,10 L221.25,250" stroke="lightgrey" />
<text x="221.25" y="255" font-size="10" text-anchor="middle" dominant-baseline="hanging" font-family="Arial">2020</text>
<path d="M275.0,10 L275.0,250" stroke="lightgrey" />
<text x="275.0" y="255" font-size="10" text-anchor="middle" dominant-baseline="hanging" font-family="Arial">2021</text>
<path d="M328.75,10 L328.75,250" stroke="lightgrey" />
<text x="328.75" y="255" font-size="10" text-anchor="middle" dominant-baseline="hanging" font-family="Arial">2022</text>
<path d="M382.5,10 L382.5,250" stroke="lightgrey" />
<text x="382.5" y="255" font-size="10" text-anchor="middle" dominant-baseline="hanging" font-family="Arial">2023</text>
<path d="M436.25,10 L436.25,250" stroke="lightgrey" />
<text x="436.25" y="255" font-size="10" text-anchor="middle" dominant-baseline="hanging" font-family="Arial">2024</text>
<path d="M60,223.33333333333334 L490,223.33333333333334" stroke="lightgrey" />
<text x="55" y="223.33333333333334" font-size="10" text-anchor="end" dominant-baseline="middle" font-family="Arial">-6</text>
<path d="M60,196.66666666666669 L490,196.66666666666669" stroke="lightgrey" />
<text x="55" y="196.66666666666669" font-size="10" text-anchor="end" dominant-baseline="middle" font-family="Arial">-4</text>
<path d="M60,170.0 L490,170.0" stroke="lightgrey" />
<text x="55" y="170.0" font-size="10" text-anchor="end" dominant-baseline="middle" font-family="Arial">-2</text>
<path d="M60,143.33333333333334 L490,143.33333333333334" stroke="black" />
<text x="55" y="143.33333333333334" font-size="10" text-anchor="end" dominant-baseline="middle" font-family="Arial">0</text>
<path d="M60,116.66666666666666 L490,116.66666666666666" stroke="lightgrey" />
<text x="55" y="116.66666666666666" font-size="10" text-anchor="end" dominant-baseline="middle" font-family="Arial">2</text>
<path d="M60,90.0 L490,90.0" stroke="lightgrey" />
<text x="55" y="90.0" font-size="10" text-anchor="end" dominant-baseline="middle" font-family="Arial">4</text>
<path d="M60,63.33333333333334 L490,63.33333333333334" stroke="lightgrey" />
<text x="55" y="63.33333333333334" font-size="10" text-anchor="end" dominant-baseline="middle" font-family="Arial">6</text>
<path d="M60,36.666666666666686 L490,36.666666666666686" stroke="lightgrey" />
<text x="55" y="36.666666666666686" font-size="10" text-anchor="end" dominant-baseline="middle" font-family="Arial">8</text>
<path d="M60,10 L490,10 L490,250 L60,250 Z" fill="none" stroke="black" id="axes" />
<text x="275.0" y="275.0" font-size="16" text-anchor="middle" dominant-baseline="hanging" font-family="Arial">Year</text>
<text x="10" y="130.0" font-size="16" text-anchor="middle" dominant-baseline="hanging" transform="rotate(-90, 10, 130.0)" font-family="Arial">Luck Score</text>
<path d="M113.75,63.33333333333334 L167.5,156.66666666666669 L221.25,50.0 L275.0,143.33333333333334 L328.75,116.66666666666666 L382.5,223.33333333333334 L436.25,36.666666666666686" fill="none" stroke="black" />
<circle cx="113.75" cy="63.33333333333334" r="4" fill="sandybrown" stroke="black" stroke-width="1.5" />
<circle cx="167.5" cy="156.66666666666669" r="4" fill="sandybrown" stroke="black" stroke-width="1.5" />
<circle cx="221.25" cy="50.0" r="4" fill="sandybrown" stroke="black" stroke-width="1.5" />
<circle cx="275.0" cy="143.33333333333334" r="4" fill="sandybrown" stroke="black" stroke-width="1.5" />
<circle cx="328.75" cy="116.66666666666666" r="4" fill="sandybrown" stroke="black" stroke-width="1.5" />
<circle cx="382.5" cy="223.33333333333334" r="4" fill="sandybrown" stroke="black" stroke-width="1.5" />
<circle cx="436.25" cy="36.666666666666686" r="4" fill="sandybrown" stroke="black" stroke-width="1.5" />
</svg>