<?xml version="1.0" encoding="UTF-8"?>
<svg xmlns="http://www.w3.org/2000/svg" xmlns:xlink="http://www.w3.org/1999/xlink"
     width="500" height="300" viewBox="0 0 500 300">
<defs>
</defs>
<path d="M0,0 L500,0 L500,300 L0,300 Z" fill="white" id="border" />
<path d="M113.75,10 L113.75,250" stroke="lightgrey" />
<text x="113.75" y="255" font-size="10" text-anchor="middle" dominant-baseline="hanging" font-family="Arial">2018</text>
<path d="M167.5,10 L167.5,250" stroke="lightgrey" />
<text x="167.5" y="255" font-size="10" text-anchor="middle" dominant-baseline="hanging" font-family="Arial">2019</text>
<path d="M221.25,10 L221.25,250" stroke="lightgrey" />
<text x="221.25" y="255" font-size="10" text-anchor="middle" dominant-baseline="hanging" font-family="Arial">2020</text>
<path d="M275.0,10 L275.0,250" stroke="lightgrey" />
<text x="275.0" y="255" font-size="10" text-anchor="middle" dominant-baseline="hanging" font-family="Arial">2021</text>
<path d="M328.75,10 L328.75,250" stroke="lightgrey" />
<text x="328.75" y="255" font-size="10" text-anchor="middle" dominant-baseline="hanging" font-family="Arial">2022</text>
<path d="M382.5,10 L382.5,250" stroke="lightgrey" />
<text x="382.5" y="255" font-size="10" text-anchor="middle" dominant-baseline="hanging" font-family="Arial">2023</text>
<path d="M436.25,10 L436.25,250" stroke="lightgrey" />
<text x="436.25" y="255" font-size="10" text-anchor="middle" dominant-baseline="hanging" font-family="Arial">2024</text>
<path d="M60,215.71428571428572 L490,215.71428571428572" stroke="lightgrey" />
<text x="55" y="215.71428571428572" font-size="10" text-anchor="end" dominant-baseline="middle" font-family="Arial">-4</text>
<path d="M60,181.42857142857144 L490,181.42857142857144" stroke="lightgrey" />
<text x="55" y="181.42857142857144" font-size="10" text-anchor="end" dominant-baseline="middle" font-family="Arial">-2</text>
<path d="M60,147.14285714285717 L490,147.14285714285717" stroke="black" />
<text x="55" y="147.14285714285717" font-size="10" text-anchor="end" dominant-baseline="middle" font-family="Arial">0</text>
<path d="M60,112.85714285714286 L490,112.85714285714286" stroke="lightgrey" />
<text x="55" y="112.85714285714286" font-size="10" text-anchor="end" dominant-baseline="middle" font-family="Arial">2</text>
<path d="M60,78.57142857142856 L490,78.57142857142856" stroke="lightgrey" />
<text x="55" y="78.57142857142856" font-size="10" text-anchor="end" dominant-baseline="middle" font-family="Arial">4</text>
<path d="M60,44.285714285714306 L490,44.285714285714306" stroke="lightgrey" />
<text x="55" y="44.285714285714306" font-size="10" text-anchor="end" dominant-baseline="middle" font-family="Arial">6</text>
<path d="M60,10 L490,10 L490,250 L60,250 Z" fill="none" stroke="black" id="axes" />
<text x="275.0" y="275.0" font-size="16" text-anchor="middle" dominant-baseline="hanging" font-family="Arial">Year</text>
<text x="10" y="130.0" font-size="16" text-anchor="middle" dominant-baseline="hanging" transform="rotate(-90, 10, 130.0)" font-family="Arial">Luck Score</text>
<path d="M113.75,232.85714285714286 L167.5,27.14285714285714 L221.25,164.28571428571428 L275.0,95.7142857142857 L328.75,112.85714285714286 L382.5,181.42857142857144 L436.25,215.71428571428572" fill="none" stroke="black" />
<circle cx="113.75" cy="232.85714285714286" r="4" fill="darkblue" stroke="black" stroke-width="1.5" />
<circle cx="167.5" cy="27.14285714285714" r="4" fill="darkblue" stroke="black" stroke-width="1.5" />
<circle cx="221.25" cy="164.28571428571428" r="4" fill="darkblue" stroke="black" stroke-width="1.5" />
<circle cx="275.0" cy="95.7142857142857" r="4" fill="darkblue" stroke="black" stroke-width="1.5" />
<circle cx="328.75" cy="112.85714285714286" r="4" fill="darkblue" stroke="black" stroke-width="1.5" />
<circle cx="382.5" cy="181.42857142857144" r="4" fill="darkblue" stroke="black" stroke-width="1.5" />
<circle cx="436.25" cy="215.71428571428572" r="4" fill="darkblue" stroke="black" stroke-width="1.5" />
</svg>