<?xml version="1.0" encoding="UTF-8"?>
<svg xmlns="http://www.w3.org/2000/svg" xmlns:xlink="http://www.w3.org/1999/xlink"
     width="500" height="300" viewBox="0 0 500 300">
<defs>
</defs>
<path d="M0,0 L500,0 L500,300 L0,300 Z" fill="white" id="border" />
<path d="M113.75,10 L113.75,250" stroke="lightgrey" />
<text x="113.75" y="255" font-size="10" text-anchor="middle" dominant-baseline="hanging" font-family="Arial">2018</text>
<path d="M167.5,10 L167.5,250" stroke="lightgrey" />
<text x="167.5" y="255" font-size="10" text-anchor="middle" dominant-baseline="hanging" font-family="Arial">2019</text>
<path d="M221.25,10 L221.25,250" stroke="lightgrey" />
<text x="221.25" y="255" font-size="10" text-anchor="middle" dominant-baseline="hanging" font-family="Arial">2020</text>
<path d="M275.0,10 L275.0,250" stroke="lightgrey" />
<text x="275.0" y="255" font-size="10" text-anchor="middle" dominant-baseline="hanging" font-family="Arial">2021</text>
<path d="M328.75,10 L328.75,250" stroke="lightgrey" />
<text x="328.75" y="255" font-size="10" text-anchor="middle" dominant-baseline="hanging" font-family="Arial">2022</text>
<path d="M382.5,10 L382.5,250" stroke="lightgrey" />
<text x="382.5" y="255" font-size="10" text-anchor="middle" dominant-baseline="hanging" font-family="Arial">2023</text>
<path d="M436.25,10 L436.25,250" stroke="lightgrey" />
<text x="436.25" y="255" font-size="10" text-anchor="middle" dominant-baseline="hanging" font-family="Arial">2024</text>
<path d="M60,231.53846153846155 L490,231.53846153846155" stroke="lightgrey" />
<text x="55" y="231.53846153846155" font-size="10" text-anchor="end" dominant-baseline="middle" font-family="Arial">-12</text>
<path d="M60,213.07692307692307 L490,213.07692307692307" stroke="lightgrey" />
<text x="55" y="213.07692307692307" font-size="10" text-anchor="end" dominant-baseline="middle" font-family="Arial">-10</text>
<path d="M60,194.6153846153846 L490,194.6153846153846" stroke="lightgrey" />
<text x="55" y="194.6153846153846" font-size="10" text-anchor="end" dominant-baseline="middle" font-family="Arial">-8</text>
<path d="M60,176.15384615384613 L490,176.15384615384613" stroke="lightgrey" />
<text x="55" y="176.15384615384613" font-size="10" text-anchor="end" dominant-baseline="middle" font-family="Arial">-6</text>
<path d="M60,157.69230769230768 L490,157.69230769230768" stroke="lightgrey" />
<text x="55" y="157.69230769230768" font-size="10" text-anchor="end" dominant-baseline="middle" font-family="Arial">-4</text>
<path d="M60,139.23076923076923 L490,139.23076923076923" stroke="lightgrey" />
<text x="55" y="139.23076923076923" font-size="10" text-anchor="end" dominant-baseline="middle" font-family="Arial">-2</text>
<path d="M60,120.76923076923077 L490,120.76923076923077" stroke="black" />
<text x="55" y="120.76923076923077" font-size="10" text-anchor="end" dominant-baseline="middle" font-family="Arial">0</text>
<path d="M60,102.30769230769229 L490,102.30769230769229" stroke="lightgrey" />
<text x="55" y="102.30769230769229" font-size="10" text-anchor="end" dominant-baseline="middle" font-family="Arial">2</text>
<path d="M60,83.84615384615384 L490,83.84615384615384" stroke="lightgrey" />
<text x="55" y="83.84615384615384" font-size="10" text-anchor="end" dominant-baseline="middle" font-family="Arial">4</text>
<path d="M60,65.38461538461539 L490,65.38461538461539" stroke="lightgrey" />
<text x="55" y="65.38461538461539" font-size="10" text-anchor="end" dominant-baseline="middle" font-family="Arial">6</text>
<path d="M60,46.923076923076934 L490,46.923076923076934" stroke="lightgrey" />
<text x="55" y="46.923076923076934" font-size="10" text-anchor="end" dominant-baseline="middle" font-family="Arial">8</text>
<path d="M60,28.461538461538453 L490,28.461538461538453" stroke="lightgrey" />
<text x="55" y="28.461538461538453" font-size="10" text-anchor="end" dominant-baseline="middle" font-family="Arial">10</text>
<path d="M60,10 L490,10 L490,250 L60,250 Z" fill="none" stroke="black" id="axes" />
<text x="275.0" y="275.0" font-size="16" text-anchor="middle" dominant-baseline="hanging" font-family="Arial">Year</text>
<text x="10" y="130.0" font-size="16" text-anchor="middle" dominant-baseline="hanging" transform="rotate(-90, 10, 130.0)" font-family="Arial">Luck Score</text>
<path d="M113.75,166.9230769230769 L167.5,111.53846153846155 L221.25,240.76923076923077 L275.0,83.84615384615384 L328.75,148.46153846153845 L382.5,28.461538461538453 L436.25,111.53846153846155" fill="none" stroke="black" />
<circle cx="113.75" cy="166.9230769230769" r="4" fill="#e31a1c" stroke="black" stroke-width="1.5" />
<circle cx="167.5" cy="111.53846153846155" r="4" fill="#e31a1c" stroke="black" stroke-width="1.5" />
<circle cx="221.25" cy="240.76923076923077" r="4" fill="#e31a1c" stroke="black" stroke-width="1.5" />
<circle cx="275.0" cy="83.84615384615384" r="4" fill="#e31a1c" stroke="black" stroke-width="1.5" />
<circle cx="328.75" cy="148.46153846153845" r="4" fill="#e31a1c" stroke="black" stroke-width="1.5" />
<circle cx="382.5" cy="28.461538461538453" r="4" fill="#e31a1c" stroke="black" stroke-width="1.5" />
<circle cx="436.25" cy="111.53846153846155" r="4" fill="#e31a1c" stroke="black" stroke-width="1.5" />
</svg>