<?xml version="1.0" encoding="UTF-8"?>
<svg xmlns="http://www.w3.org/2000/svg" xmlns:xlink="http://www.w3.org/1999/xlink"
     width="500" height="300" viewBox="0 0 500 300">
<defs>
</defs>
<path d="M0,0 L500,0 L500,300 L0,300 Z" fill="white" id="border" />
<path d="M121.42857142857142,10 L121.42857142857142,250" stroke="lightgrey" />
<text x="121.42857142857142" y="255" font-size="10" text-anchor="middle" dominant-baseline="hanging" font-family="Arial">2019</text>
<path d="M182.85714285714283,10 L182.85714285714283,250" stroke="lightgrey" />
<text x="182.85714285714283" y="255" font-size="10" text-anchor="middle" dominant-baseline="hanging" font-family="Arial">2020</text>
<path d="M244.28571428571428,10 L244.28571428571428,250" stroke="lightgrey" />
<text x="244.28571428571428" y="255" font-size="10" text-anchor="middle" dominant-baseline="hanging" font-family="Arial">2021</text>
<path d="M305.71428571428567,10 L305.71428571428567,250" stroke="lightgrey" />
<text x="305.71428571428567" y="255" font-size="10" text-anchor="middle" dominant-baseline="hanging" font-family="Arial">2022</text>
<path d="M367.14285714285717,10 L367.14285714285717,250" stroke="lightgrey" />
<text x="367.14285714285717" y="255" font-size="10" text-anchor="middle" dominant-baseline="hanging" font-family="Arial">2023</text>
<path d="M428.57142857142856,10 L428.57142857142856,250" stroke="lightgrey" />
<text x="428.57142857142856" y="255" font-size="10" text-anchor="middle" dominant-baseline="hanging" font-family="Arial">2024</text>
<path d="M60,236.66666666666666 L490,236.66666666666666" stroke="lightgrey" />
<text x="55" y="236.66666666666666" font-size="10" text-anchor="end" dominant-baseline="middle" font-family="Arial">-14</text>
<path d="M60,223.33333333333334 L490,223.33333333333334" stroke="lightgrey" />
<text x="55" y="223.33333333333334" font-size="10" text-anchor="end" dominant-baseline="middle" font-family="Arial">-12</text>
<path d="M60,210.0 L490,210.0" stroke="lightgrey" />
<text x="55" y="210.0" font-size="10" text-anchor="end" dominant-baseline="middle" font-family="Arial">-10</text>
<path d="M60,196.66666666666669 L490,196.66666666666669" stroke="lightgrey" />
<text x="55" y="196.66666666666669" font-size="10" text-anchor="end" dominant-baseline="middle" font-family="Arial">-8</text>
<path d="M60,183.33333333333331 L490,183.33333333333331" stroke="lightgrey" />
<text x="55" y="183.33333333333331" font-size="10" text-anchor="end" dominant-baseline="middle" font-family="Arial">-6</text>
<path d="M60,170.0 L490,170.0" stroke="lightgrey" />
<text x="55" y="170.0" font-size="10" text-anchor="end" dominant-baseline="middle" font-family="Arial">-4</text>
<path d="M60,156.66666666666669 L490,156.66666666666669" stroke="lightgrey" />
<text x="55" y="156.66666666666669" font-size="10" text-anchor="end" dominant-baseline="middle" font-family="Arial">-2</text>
<path d="M60,143.33333333333334 L490,143.33333333333334" stroke="black" />
<text x="55" y="143.33333333333334" font-size="10" text-anchor="end" dominant-baseline="middle" font-family="Arial">0</text>
<path d="M60,130.0 L490,130.0" stroke="lightgrey" />
<text x="55" y="130.0" font-size="10" text-anchor="end" dominant-baseline="middle" font-family="Arial">2</text>
<path d="M60,116.66666666666666 L490,116.66666666666666" stroke="lightgrey" />
<text x="55" y="116.66666666666666" font-size="10" text-anchor="end" dominant-baseline="middle" font-family="Arial">4</text>
<path d="M60,103.33333333333331 L490,103.33333333333331" stroke="lightgrey" />
<text x="55" y="103.33333333333331" font-size="10" text-anchor="end" dominant-baseline="middle" font-family="Arial">6</text>
<path d="M60,90.0 L490,90.0" stroke="lightgrey" />
<text x="55" y="90.0" font-size="10" text-anchor="end" dominant-baseline="middle" font-family="Arial">8</text>
<path d="M60,76.66666666666666 L490,76.66666666666666" stroke="lightgrey" />
<text x="55" y="76.66666666666666" font-size="10" text-anchor="end" dominant-baseline="middle" font-family="Arial">10</text>
<path d="M60,63.33333333333334 L490,63.33333333333334" stroke="lightgrey" />
<text x="55" y="63.33333333333334" font-size="10" text-anchor="end" dominant-baseline="middle" font-family="Arial">12</text>
<path d="M60,50.0 L490,50.0" stroke="lightgrey" />
<text x="55" y="50.0" font-size="10" text-anchor="end" dominant-baseline="middle" font-family="Arial">14</text>
<path d="M60,36.666666666666686 L490,36.666666666666686" stroke="lightgrey" />
<text x="55" y="36.666666666666686" font-size="10" text-anchor="end" dominant-baseline="middle" font-family="Arial">16</text>
<path d="M60,23.333333333333343 L490,23.333333333333343" stroke="lightgrey" />
<text x="55" y="23.333333333333343" font-size="10" text-anchor="end" dominant-baseline="middle" font-family="Arial">18</text>
<path d="M60,10 L490,10 L490,250 L60,250 Z" fill="none" stroke="black" id="axes" />
<text x="275.0" y="275.0" font-size="16" text-anchor="middle" dominant-baseline="hanging" font-family="Arial">Year</text>
<text x="10" y="130.0" font-size="16" text-anchor="middle" dominant-baseline="hanging" transform="rotate(-90, 10, 130.0)" font-family="Arial">Luck Score</text>
<path d="M121.42857142857142,176.66666666666666 L182.85714285714283,23.333333333333343 L244.28571428571428,243.33333333333334 L305.71428571428567,76.66666666666666 L367.14285714285717,96.66666666666669 L428.57142857142856,150.0" fill="none" stroke="black" />
<circle cx="121.42857142857142" cy="176.66666666666666" r="4" fill="#6a3d9a" stroke="black" stroke-width="1.5" />
<circle cx="182.85714285714283" cy="23.333333333333343" r="4" fill="#6a3d9a" stroke="black" stroke-width="1.5" />
<circle cx="244.28571428571428" cy="243.33333333333334" r="4" fill="#6a3d9a" stroke="black" stroke-width="1.5" />
<circle cx="305.71428571428567" cy="76.66666666666666" r="4" fill="#6a3d9a" stroke="black" stroke-width="1.5" />
<circle cx="367.14285714285717" cy="96.66666666666669" r="4" fill="#6a3d9a" stroke="black" stroke-width="1.5" />
<circle cx="428.57142857142856" cy="150.0" r="4" fill="#6a3d9a" stroke="black" stroke-width="1.5" />
</svg>