<?xml version="1.0" encoding="UTF-8"?>
<svg xmlns="http://www.w3.org/2000/svg" xmlns:xlink="http://www.w3.org/1999/xlink"
     width="500" height="300" viewBox="0 0 500 300">
<defs>
</defs>
<path d="M0,0 L500,0 L500,300 L0,300 Z" fill="white" id="border" />
<path d="M167.5,10 L167.5,250" stroke="lightgrey" />
<text x="167.5" y="255" font-size="10" text-anchor="middle" dominant-baseline="hanging" font-family="Arial">2022</text>
<path d="M275.0,10 L275.0,250" stroke="lightgrey" />
<text x="275.0" y="255" font-size="10" text-anchor="middle" dominant-baseline="hanging" font-family="Arial">2023</text>
<path d="M382.5,10 L382.5,250" stroke="lightgrey" />
<text x="382.5" y="255" font-size="10" text-anchor="middle" dominant-baseline="hanging" font-family="Arial">2024</text>
<path d="M60,223.33333333333334 L490,223.33333333333334" stroke="lightgrey" />
<text x="55" y="223.33333333333334" font-size="10" text-anchor="end" dominant-baseline="middle" font-family="Arial">-10</text>
<path d="M60,196.66666666666669 L490,196.66666666666669" stroke="lightgrey" />
<text x="55" y="196.66666666666669" font-size="10" text-anchor="end" dominant-baseline="middle" font-family="Arial">-8</text>
<path d="M60,170.0 L490,170.0" stroke="lightgrey" />
<text x="55" y="170.0" font-size="10" text-anchor="end" dominant-baseline="middle" font-family="Arial">-6</text>
<path d="M60,143.33333333333334 L490,143.33333333333334" stroke="lightgrey" />
<text x="55" y="143.33333333333334" font-size="10" text-anchor="end" dominant-baseline="middle" font-family="Arial">-4</text>
<path d="M60,116.66666666666666 L490,116.66666666666666" stroke="lightgrey" />
<text x="55" y="116.66666666666666" font-size="10" text-anchor="end" dominant-baseline="middle" font-family="Arial">-2</text>
<path d="M60,90.0 L490,90.0" stroke="black" />
<text x="55" y="90.0" font-size="10" text-anchor="end" dominant-baseline="middle" font-family="Arial">0</text>
<path d="M60,63.33333333333334 L490,63.33333333333334" stroke="lightgrey" />
<text x="55" y="63.33333333333334" font-size="10" text-anchor="end" dominant-baseline="middle" font-family="Arial">2</text>
<path d="M60,36.666666666666686 L490,36.666666666666686" stroke="lightgrey" />
<text x="55" y="36.666666666666686" font-size="10" text-anchor="end" dominant-baseline="middle" font-family="Arial">4</text>
<path d="M60,10 L490,10 L490,250 L60,250 Z" fill="none" stroke="black" id="axes" />
<text x="275.0" y="275.0" font-size="16" text-anchor="middle" dominant-baseline="hanging" font-family="Arial">Year</text>
<text x="10" y="130.0" font-size="16" text-anchor="middle" dominant-baseline="hanging" transform="rotate(-90, 10, 130.0)" font-family="Arial">Luck Score</text>
<path d="M167.5,223.33333333333334 L275.0,196.66666666666669 L382.5,23.333333333333343" fill="none" stroke="black" />
<circle cx="167.5" cy="223.33333333333334" r="4" fill="violet" stroke="black" stroke-width="1.5" />
<circle cx="275.0" cy="196.66666666666669" r="4" fill="violet" stroke="black" stroke-width="1.5" />
<circle cx="382.5" cy="23.333333333333343" r="4" fill="violet" stroke="black" stroke-width="1.5" />
</svg>