<?xml version="1.0" encoding="UTF-8"?>
<svg xmlns="http://www.w3.org/2000/svg" xmlns:xlink="http://www.w3.org/1999/xlink"
     width="500" height="300" viewBox="0 0 500 300">
<defs>
</defs>
<path d="M0,0 L500,0 L500,300 L0,300 Z" fill="white" id="border" />
<path d="M113.75,10 L113.75,250" stroke="lightgrey" />
<text x="113.75" y="255" font-size="10" text-anchor="middle" dominant-baseline="hanging" font-family="Arial">2018</text>
<path d="M167.5,10 L167.5,250" stroke="lightgrey" />
<text x="167.5" y="255" font-size="10" text-anchor="middle" dominant-baseline="hanging" font-family="Arial">2019</text>
<path d="M221.25,10 L221.25,250" stroke="lightgrey" />
<text x="221.25" y="255" font-size="10" text-anchor="middle" dominant-baseline="hanging" font-family="Arial">2020</text>
<path d="M275.0,10 L275.0,250" stroke="lightgrey" />
<text x="275.0" y="255" font-size="10" text-anchor="middle" dominant-baseline="hanging" font-family="Arial">2021</text>
<path d="M328.75,10 L328.75,250" stroke="lightgrey" />
<text x="328.75" y="255" font-size="10" text-anchor="middle" dominant-baseline="hanging" font-family="Arial">2022</text>
<path d="M382.5,10 L382.5,250" stroke="lightgrey" />
<text x="382.5" y="255" font-size="10" text-anchor="middle" dominant-baseline="hanging" font-family="Arial">2023</text>
<path d="M436.25,10 L436.25,250" stroke="lightgrey" />
<text x="436.25" y="255" font-size="10" text-anchor="middle" dominant-baseline="hanging" font-family="Arial">2024</text>
<path d="M60,228.1818181818182 L490,228.1818181818182" stroke="lightgrey" />
<text x="55" y="228.1818181818182" font-size="10" text-anchor="end" dominant-baseline="middle" font-family="Arial">-8</text>
<path d="M60,206.36363636363637 L490,206.36363636363637" stroke="lightgrey" />
<text x="55" y="206.36363636363637" font-size="10" text-anchor="end" dominant-baseline="middle" font-family="Arial">-6</text>
<path d="M60,184.54545454545456 L490,184.54545454545456" stroke="lightgrey" />
<text x="55" y="184.54545454545456" font-size="10" text-anchor="end" dominant-baseline="middle" font-family="Arial">-4</text>
<path d="M60,162.72727272727272 L490,162.72727272727272" stroke="lightgrey" />
<text x="55" y="162.72727272727272" font-size="10" text-anchor="end" dominant-baseline="middle" font-family="Arial">-2</text>
<path d="M60,140.9090909090909 L490,140.9090909090909" stroke="black" />
<text x="55" y="140.9090909090909" font-size="10" text-anchor="end" dominant-baseline="middle" font-family="Arial">0</text>
<path d="M60,119.0909090909091 L490,119.0909090909091" stroke="lightgrey" />
<text x="55" y="119.0909090909091" font-size="10" text-anchor="end" dominant-baseline="middle" font-family="Arial">2</text>
<path d="M60,97.27272727272728 L490,97.27272727272728" stroke="lightgrey" />
<text x="55" y="97.27272727272728" font-size="10" text-anchor="end" dominant-baseline="middle" font-family="Arial">4</text>
<path d="M60,75.45454545454544 L490,75.45454545454544" stroke="lightgrey" />
<text x="55" y="75.45454545454544" font-size="10" text-anchor="end" dominant-baseline="middle" font-family="Arial">6</text>
<path d="M60,53.636363636363626 L490,53.636363636363626" stroke="lightgrey" />
<text x="55" y="53.636363636363626" font-size="10" text-anchor="end" dominant-baseline="middle" font-family="Arial">8</text>
<path d="M60,31.818181818181813 L490,31.818181818181813" stroke="lightgrey" />
<text x="55" y="31.818181818181813" font-size="10" text-anchor="end" dominant-baseline="middle" font-family="Arial">10</text>
<path d="M60,10 L490,10 L490,250 L60,250 Z" fill="none" stroke="black" id="axes" />
<text x="275.0" y="275.0" font-size="16" text-anchor="middle" dominant-baseline="hanging" font-family="Arial">Year</text>
<text x="10" y="130.0" font-size="16" text-anchor="middle" dominant-baseline="hanging" transform="rotate(-90, 10, 130.0)" font-family="Arial">Luck Score</text>
<path d="M113.75,31.818181818181813 L167.5,239.0909090909091 L221.25,64.54545454545456 L275.0,195.45454545454544 L328.75,206.36363636363637 L382.5,130.0 L436.25,217.27272727272728" fill="none" stroke="black" />
<circle cx="113.75" cy="31.818181818181813" r="4" fill="#fb9a99" stroke="black" stroke-width="1.5" />
<circle cx="167.5" cy="239.0909090909091" r="4" fill="#fb9a99" stroke="black" stroke-width="1.5" />
<circle cx="221.25" cy="64.54545454545456" r="4" fill="#fb9a99" stroke="black" stroke-width="1.5" />
<circle cx="275.0" cy="195.45454545454544" r="4" fill="#fb9a99" stroke="black" stroke-width="1.5" />
<circle cx="328.75" cy="206.36363636363637" r="4" fill="#fb9a99" stroke="black" stroke-width="1.5" />
<circle cx="382.5" cy="130.0" r="4" fill="#fb9a99" stroke="black" stroke-width="1.5" />
<circle cx="436.25" cy="217.27272727272728" r="4" fill="#fb9a99" stroke="black" stroke-width="1.5" />
</svg>