<?xml version="1.0" encoding="UTF-8"?>
<svg xmlns="http://www.w3.org/2000/svg" xmlns:xlink="http://www.w3.org/1999/xlink"
     width="500" height="300" viewBox="0 0 500 300">
<defs>
</defs>
<path d="M0,0 L500,0 L500,300 L0,300 Z" fill="white" id="border" />
<path d="M121.42857142857142,10 L121.42857142857142,250" stroke="lightgrey" />
<text x="121.42857142857142" y="255" font-size="10" text-anchor="middle" dominant-baseline="hanging" font-family="Arial">2019</text>
<path d="M182.85714285714283,10 L182.85714285714283,250" stroke="lightgrey" />
<text x="182.85714285714283" y="255" font-size="10" text-anchor="middle" dominant-baseline="hanging" font-family="Arial">2020</text>
<path d="M244.28571428571428,10 L244.28571428571428,250" stroke="lightgrey" />
<text x="244.28571428571428" y="255" font-size="10" text-anchor="middle" dominant-baseline="hanging" font-family="Arial">2021</text>
<path d="M305.71428571428567,10 L305.71428571428567,250" stroke="lightgrey" />
<text x="305.71428571428567" y="255" font-size="10" text-anchor="middle" dominant-baseline="hanging" font-family="Arial">2022</text>
<path d="M367.14285714285717,10 L367.14285714285717,250" stroke="lightgrey" />
<text x="367.14285714285717" y="255" font-size="10" text-anchor="middle" dominant-baseline="hanging" font-family="Arial">2023</text>
<path d="M428.57142857142856,10 L428.57142857142856,250" stroke="lightgrey" />
<text x="428.57142857142856" y="255" font-size="10" text-anchor="middle" dominant-baseline="hanging" font-family="Arial">2024</text>
<path d="M60,210.0 L490,210.0" stroke="lightgrey" />
<text x="55" y="210.0" font-size="10" text-anchor="end" dominant-baseline="middle" font-family="Arial">-6</text>
<path d="M60,170.0 L490,170.0" stroke="lightgrey" />
<text x="55" y="170.0" font-size="10" text-anchor="end" dominant-baseline="middle" font-family="Arial">-4</text>
<path d="M60,130.0 L490,130.0" stroke="lightgrey" />
<text x="55" y="130.0" font-size="10" text-anchor="end" dominant-baseline="middle" font-family="Arial">-2</text>
<path d="M60,90.0 L490,90.0" stroke="black" />
<text x="55" y="90.0" font-size="10" text-anchor="end" dominant-baseline="middle" font-family="Arial">0</text>
<path d="M60,50.0 L490,50.0" stroke="lightgrey" />
<text x="55" y="50.0" font-size="10" text-anchor="end" dominant-baseline="middle" font-family="Arial">2</text>
<path d="M60,10 L490,10 L490,250 L60,250 Z" fill="none" stroke="black" id="axes" />
<text x="275.0" y="275.0" font-size="16" text-anchor="middle" dominant-baseline="hanging" font-family="Arial">Year</text>
<text x="10" y="130.0" font-size="16" text-anchor="middle" dominant-baseline="hanging" transform="rotate(-90, 10, 130.0)" font-family="Arial">Luck Score</text>
<path d="M121.42857142857142,230.0 L182.85714285714283,130.0 L244.28571428571428,150.0 L305.71428571428567,170.0 L367.14285714285717,50.0 L428.57142857142856,150.0" fill="none" stroke="black" />
<circle cx="121.42857142857142" cy="230.0" r="4" fill="cornflowerblue" stroke="black" stroke-width="1.5" />
<circle cx="182.85714285714283" cy="130.0" r="4" fill="cornflowerblue" stroke="black" stroke-width="1.5" />
<circle cx="244.28571428571428" cy="150.0" r="4" fill="cornflowerblue" stroke="black" stroke-width="1.5" />
<circle cx="305.71428571428567" cy="170.0" r="4" fill="cornflowerblue" stroke="black" stroke-width="1.5" />
<circle cx="367.14285714285717" cy="50.0" r="4" fill="cornflowerblue" stroke="black" stroke-width="1.5" />
<circle cx="428.57142857142856" cy="150.0" r="4" fill="cornflowerblue" stroke="black" stroke-width="1.5" />
</svg>