<?xml version="1.0" encoding="UTF-8"?>
<svg xmlns="http://www.w3.org/2000/svg" xmlns:xlink="http://www.w3.org/1999/xlink"
     width="500" height="300" viewBox="0 0 500 300">
<defs>
</defs>
<path d="M0,0 L500,0 L500,300 L0,300 Z" fill="white" id="border" />
<path d="M107.77777777777777,10 L107.77777777777777,250" stroke="lightgrey" />
<text x="107.77777777777777" y="255" font-size="10" text-anchor="middle" dominant-baseline="hanging" font-family="Arial">1450</text>
<path d="M155.55555555555554,10 L155.55555555555554,250" stroke="lightgrey" />
<text x="155.55555555555554" y="255" font-size="10" text-anchor="middle" dominant-baseline="hanging" font-family="Arial">1500</text>
<path d="M203.33333333333331,10 L203.33333333333331,250" stroke="lightgrey" />
<text x="203.33333333333331" y="255" font-size="10" text-anchor="middle" dominant-baseline="hanging" font-family="Arial">1550</text>
<path d="M251.11111111111111,10 L251.11111111111111,250" stroke="lightgrey" />
<text x="251.11111111111111" y="255" font-size="10" text-anchor="middle" dominant-baseline="hanging" font-family="Arial">1600</text>
<path d="M298.8888888888889,10 L298.8888888888889,250" stroke="lightgrey" />
<text x="298.8888888888889" y="255" font-size="10" text-anchor="middle" dominant-baseline="hanging" font-family="Arial">1650</text>
<path d="M346.66666666666663,10 L346.66666666666663,250" stroke="lightgrey" />
<text x="346.66666666666663" y="255" font-size="10" text-anchor="middle" dominant-baseline="hanging" font-family="Arial">1700</text>
<path d="M394.44444444444446,10 L394.44444444444446,250" stroke="lightgrey" />
<text x="394.44444444444446" y="255" font-size="10" text-anchor="middle" dominant-baseline="hanging" font-family="Arial">1750</text>
<path d="M442.22222222222223,10 L442.22222222222223,250" stroke="lightgrey" />
<text x="442.22222222222223" y="255" font-size="10" text-anchor="middle" dominant-baseline="hanging" font-family="Arial">1800</text>
<path d="M60,226.0 L490,226.0" stroke="lightgrey" />
<text x="55" y="226.0" font-size="10" text-anchor="end" dominant-baseline="middle" font-family="Arial">1350</text>
<path d="M60,202.0 L490,202.0" stroke="lightgrey" />
<text x="55" y="202.0" font-size="10" text-anchor="end" dominant-baseline="middle" font-family="Arial">1400</text>
<path d="M60,178.0 L490,178.0" stroke="lightgrey" />
<text x="55" y="178.0" font-size="10" text-anchor="end" dominant-baseline="middle" font-family="Arial">1450</text>
<path d="M60,154.0 L490,154.0" stroke="lightgrey" />
<text x="55" y="154.0" font-size="10" text-anchor="end" dominant-baseline="middle" font-family="Arial">1500</text>
<path d="M60,130.0 L490,130.0" stroke="lightgrey" />
<text x="55" y="130.0" font-size="10" text-anchor="end" dominant-baseline="middle" font-family="Arial">1550</text>
<path d="M60,106.0 L490,106.0" stroke="lightgrey" />
<text x="55" y="106.0" font-size="10" text-anchor="end" dominant-baseline="middle" font-family="Arial">1600</text>
<path d="M60,82.0 L490,82.0" stroke="lightgrey" />
<text x="55" y="82.0" font-size="10" text-anchor="end" dominant-baseline="middle" font-family="Arial">1650</text>
<path d="M60,58.0 L490,58.0" stroke="lightgrey" />
<text x="55" y="58.0" font-size="10" text-anchor="end" dominant-baseline="middle" font-family="Arial">1700</text>
<path d="M60,34.0 L490,34.0" stroke="lightgrey" />
<text x="55" y="34.0" font-size="10" text-anchor="end" dominant-baseline="middle" font-family="Arial">1750</text>
<path d="M60,10 L490,10 L490,250 L60,250 Z" fill="none" stroke="black" id="axes" />
<text x="275.0" y="275.0" font-size="16" text-anchor="middle" dominant-baseline="hanging" font-family="Arial">Points For</text>
<text x="10" y="130.0" font-size="16" text-anchor="middle" dominant-baseline="hanging" transform="rotate(-90, 10, 130.0)" font-family="Arial">Points Against</text>
<circle cx="288.91288888888886" cy="227.01759999999996" r="4" fill="#6a3d9a" stroke="black" stroke-width="1.5" />
<circle cx="250.86266666666668" cy="154.5952" r="4" fill="#fb9a99" stroke="black" stroke-width="1.5" />
<circle cx="206.46755555555552" cy="176.42560000000003" r="4" fill="sandybrown" stroke="black" stroke-width="1.5" />
<circle cx="464.00888888888886" cy="72.0256" r="4" fill="#33a02c" stroke="black" stroke-width="1.5" />
<circle cx="294.9137777777777" cy="132.2752" r="4" fill="cornflowerblue" stroke="black" stroke-width="1.5" />
<circle cx="165.43599999999992" cy="136.81600000000003" r="4" fill="#b15928" stroke="black" stroke-width="1.5" />
<circle cx="163.02799999999996" cy="124.55680000000004" r="4" fill="darkblue" stroke="black" stroke-width="1.5" />
<circle cx="214.0928888888889" cy="78.72640000000004" r="4" fill="#ff7f00" stroke="black" stroke-width="1.5" />
<circle cx="92.50799999999998" cy="71.59359999999998" r="4" fill="gold" stroke="black" stroke-width="1.5" />
<circle cx="99.00577777777772" cy="22.53759999999994" r="4" fill="#e31a1c" stroke="black" stroke-width="1.5" />
</svg>