<?xml version="1.0" encoding="UTF-8"?>
<svg xmlns="http://www.w3.org/2000/svg" xmlns:xlink="http://www.w3.org/1999/xlink"
     width="500" height="300" viewBox="0 0 500 300">
<defs>
</defs>
<path d="M0,0 L500,0 L500,300 L0,300 Z" fill="white" id="border" />
<path d="M113.75,10 L113.75,250" stroke="lightgrey" />
<text x="113.75" y="255" font-size="10" text-anchor="middle" dominant-baseline="hanging" font-family="Arial">1400</text>
<path d="M167.5,10 L167.5,250" stroke="lightgrey" />
<text x="167.5" y="255" font-size="10" text-anchor="middle" dominant-baseline="hanging" font-family="Arial">1450</text>
<path d="M221.25,10 L221.25,250" stroke="lightgrey" />
<text x="221.25" y="255" font-size="10" text-anchor="middle" dominant-baseline="hanging" font-family="Arial">1500</text>
<path d="M275.0,10 L275.0,250" stroke="lightgrey" />
<text x="275.0" y="255" font-size="10" text-anchor="middle" dominant-baseline="hanging" font-family="Arial">1550</text>
<path d="M328.75,10 L328.75,250" stroke="lightgrey" />
<text x="328.75" y="255" font-size="10" text-anchor="middle" dominant-baseline="hanging" font-family="Arial">1600</text>
<path d="M382.5,10 L382.5,250" stroke="lightgrey" />
<text x="382.5" y="255" font-size="10" text-anchor="middle" dominant-baseline="hanging" font-family="Arial">1650</text>
<path d="M436.25,10 L436.25,250" stroke="lightgrey" />
<text x="436.25" y="255" font-size="10" text-anchor="middle" dominant-baseline="hanging" font-family="Arial">1700</text>
<path d="M60,210.0 L490,210.0" stroke="lightgrey" />
<text x="55" y="210.0" font-size="10" text-anchor="end" dominant-baseline="middle" font-family="Arial">1450</text>
<path d="M60,170.0 L490,170.0" stroke="lightgrey" />
<text x="55" y="170.0" font-size="10" text-anchor="end" dominant-baseline="middle" font-family="Arial">1500</text>
<path d="M60,130.0 L490,130.0" stroke="lightgrey" />
<text x="55" y="130.0" font-size="10" text-anchor="end" dominant-baseline="middle" font-family="Arial">1550</text>
<path d="M60,90.0 L490,90.0" stroke="lightgrey" />
<text x="55" y="90.0" font-size="10" text-anchor="end" dominant-baseline="middle" font-family="Arial">1600</text>
<path d="M60,50.0 L490,50.0" stroke="lightgrey" />
<text x="55" y="50.0" font-size="10" text-anchor="end" dominant-baseline="middle" font-family="Arial">1650</text>
<path d="M60,10 L490,10 L490,250 L60,250 Z" fill="none" stroke="black" id="axes" />
<text x="275.0" y="275.0" font-size="16" text-anchor="middle" dominant-baseline="hanging" font-family="Arial">Points For</text>
<text x="10" y="130.0" font-size="16" text-anchor="middle" dominant-baseline="hanging" transform="rotate(-90, 10, 130.0)" font-family="Arial">Points Against</text>
<circle cx="486.77500000000003" cy="112.33600000000004" r="4" fill="sandybrown" stroke="black" stroke-width="1.5" />
<circle cx="353.7115" cy="19.936000000000064" r="4" fill="violet" stroke="black" stroke-width="1.5" />
<circle cx="340.6824999999999" cy="214.11200000000008" r="4" fill="#b15928" stroke="black" stroke-width="1.5" />
<circle cx="328.6210000000001" cy="49.952000000000055" r="4" fill="cornflowerblue" stroke="black" stroke-width="1.5" />
<circle cx="181.8619999999999" cy="180.43199999999996" r="4" fill="#6a3d9a" stroke="black" stroke-width="1.5" />
<circle cx="382.45700000000005" cy="152.38400000000001" r="4" fill="#33a02c" stroke="black" stroke-width="1.5" />
<circle cx="379.791" cy="106.36800000000002" r="4" fill="#e31a1c" stroke="black" stroke-width="1.5" />
<circle cx="286.18000000000006" cy="54.01599999999996" r="4" fill="#fb9a99" stroke="black" stroke-width="1.5" />
<circle cx="207.68350000000012" cy="144.35200000000003" r="4" fill="darkblue" stroke="black" stroke-width="1.5" />
<circle cx="254.63949999999994" cy="35.00799999999998" r="4" fill="gold" stroke="black" stroke-width="1.5" />
<circle cx="445.624" cy="42.208" r="4" fill="#ff7f00" stroke="black" stroke-width="1.5" />
<circle cx="109.77249999999995" cy="108.208" r="4" fill="lightgreen" stroke="black" stroke-width="1.5" />
</svg>