<?xml version="1.0" encoding="UTF-8"?>
<svg xmlns="http://www.w3.org/2000/svg" xmlns:xlink="http://www.w3.org/1999/xlink"
     width="500" height="300" viewBox="0 0 500 300">
<defs>
</defs>
<path d="M0,0 L500,0 L500,300 L0,300 Z" fill="white" id="border" />
<path d="M113.75,10 L113.75,250" stroke="lightgrey" />
<text x="113.75" y="255" font-size="10" text-anchor="middle" dominant-baseline="hanging" font-family="Arial">1600</text>
<path d="M167.5,10 L167.5,250" stroke="lightgrey" />
<text x="167.5" y="255" font-size="10" text-anchor="middle" dominant-baseline="hanging" font-family="Arial">1650</text>
<path d="M221.25,10 L221.25,250" stroke="lightgrey" />
<text x="221.25" y="255" font-size="10" text-anchor="middle" dominant-baseline="hanging" font-family="Arial">1700</text>
<path d="M275.0,10 L275.0,250" stroke="lightgrey" />
<text x="275.0" y="255" font-size="10" text-anchor="middle" dominant-baseline="hanging" font-family="Arial">1750</text>
<path d="M328.75,10 L328.75,250" stroke="lightgrey" />
<text x="328.75" y="255" font-size="10" text-anchor="middle" dominant-baseline="hanging" font-family="Arial">1800</text>
<path d="M382.5,10 L382.5,250" stroke="lightgrey" />
<text x="382.5" y="255" font-size="10" text-anchor="middle" dominant-baseline="hanging" font-family="Arial">1850</text>
<path d="M436.25,10 L436.25,250" stroke="lightgrey" />
<text x="436.25" y="255" font-size="10" text-anchor="middle" dominant-baseline="hanging" font-family="Arial">1900</text>
<path d="M60,220.0 L490,220.0" stroke="lightgrey" />
<text x="55" y="220.0" font-size="10" text-anchor="end" dominant-baseline="middle" font-family="Arial">1600</text>
<path d="M60,190.0 L490,190.0" stroke="lightgrey" />
<text x="55" y="190.0" font-size="10" text-anchor="end" dominant-baseline="middle" font-family="Arial">1650</text>
<path d="M60,160.0 L490,160.0" stroke="lightgrey" />
<text x="55" y="160.0" font-size="10" text-anchor="end" dominant-baseline="middle" font-family="Arial">1700</text>
<path d="M60,130.0 L490,130.0" stroke="lightgrey" />
<text x="55" y="130.0" font-size="10" text-anchor="end" dominant-baseline="middle" font-family="Arial">1750</text>
<path d="M60,100.0 L490,100.0" stroke="lightgrey" />
<text x="55" y="100.0" font-size="10" text-anchor="end" dominant-baseline="middle" font-family="Arial">1800</text>
<path d="M60,70.0 L490,70.0" stroke="lightgrey" />
<text x="55" y="70.0" font-size="10" text-anchor="end" dominant-baseline="middle" font-family="Arial">1850</text>
<path d="M60,40.0 L490,40.0" stroke="lightgrey" />
<text x="55" y="40.0" font-size="10" text-anchor="end" dominant-baseline="middle" font-family="Arial">1900</text>
<path d="M60,10 L490,10 L490,250 L60,250 Z" fill="none" stroke="black" id="axes" />
<text x="275.0" y="275.0" font-size="16" text-anchor="middle" dominant-baseline="hanging" font-family="Arial">Points For</text>
<text x="10" y="130.0" font-size="16" text-anchor="middle" dominant-baseline="hanging" transform="rotate(-90, 10, 130.0)" font-family="Arial">Points Against</text>
<circle cx="437.90549999999996" cy="126.87999999999997" r="4" fill="cornflowerblue" stroke="black" stroke-width="1.5" />
<circle cx="275.64499999999987" cy="176.02000000000004" r="4" fill="sandybrown" stroke="black" stroke-width="1.5" />
<circle cx="388.11150000000004" cy="186.92800000000005" r="4" fill="#e31a1c" stroke="black" stroke-width="1.5" />
<circle cx="287.72799999999995" cy="186.07600000000002" r="4" fill="#ff7f00" stroke="black" stroke-width="1.5" />
<circle cx="229.52750000000003" cy="224.44000000000005" r="4" fill="gold" stroke="black" stroke-width="1.5" />
<circle cx="153.05199999999996" cy="164.76400000000004" r="4" fill="#33a02c" stroke="black" stroke-width="1.5" />
<circle cx="293.87699999999995" cy="87.47199999999995" r="4" fill="#b15928" stroke="black" stroke-width="1.5" />
<circle cx="133.12149999999997" cy="102.69999999999999" r="4" fill="#fb9a99" stroke="black" stroke-width="1.5" />
<circle cx="76.49049999999991" cy="162.50800000000004" r="4" fill="darkblue" stroke="black" stroke-width="1.5" />
<circle cx="190.16099999999992" cy="40.93599999999998" r="4" fill="#6a3d9a" stroke="black" stroke-width="1.5" />
</svg>