<?xml version="1.0" encoding="UTF-8"?>
<svg xmlns="http://www.w3.org/2000/svg" xmlns:xlink="http://www.w3.org/1999/xlink"
     width="500" height="300" viewBox="0 0 500 300">
<defs>
</defs>
<path d="M0,0 L500,0 L500,300 L0,300 Z" fill="white" id="border" />
<path d="M107.77777777777777,10 L107.77777777777777,250" stroke="lightgrey" />
<text x="107.77777777777777" y="255" font-size="10" text-anchor="middle" dominant-baseline="hanging" font-family="Arial">1250</text>
<path d="M155.55555555555554,10 L155.55555555555554,250" stroke="lightgrey" />
<text x="155.55555555555554" y="255" font-size="10" text-anchor="middle" dominant-baseline="hanging" font-family="Arial">1300</text>
<path d="M203.33333333333331,10 L203.33333333333331,250" stroke="lightgrey" />
<text x="203.33333333333331" y="255" font-size="10" text-anchor="middle" dominant-baseline="hanging" font-family="Arial">1350</text>
<path d="M251.11111111111111,10 L251.11111111111111,250" stroke="lightgrey" />
<text x="251.11111111111111" y="255" font-size="10" text-anchor="middle" dominant-baseline="hanging" font-family="Arial">1400</text>
<path d="M298.8888888888889,10 L298.8888888888889,250" stroke="lightgrey" />
<text x="298.8888888888889" y="255" font-size="10" text-anchor="middle" dominant-baseline="hanging" font-family="Arial">1450</text>
<path d="M346.66666666666663,10 L346.66666666666663,250" stroke="lightgrey" />
<text x="346.66666666666663" y="255" font-size="10" text-anchor="middle" dominant-baseline="hanging" font-family="Arial">1500</text>
<path d="M394.44444444444446,10 L394.44444444444446,250" stroke="lightgrey" />
<text x="394.44444444444446" y="255" font-size="10" text-anchor="middle" dominant-baseline="hanging" font-family="Arial">1550</text>
<path d="M442.22222222222223,10 L442.22222222222223,250" stroke="lightgrey" />
<text x="442.22222222222223" y="255" font-size="10" text-anchor="middle" dominant-baseline="hanging" font-family="Arial">1600</text>
<path d="M60,215.71428571428572 L490,215.71428571428572" stroke="lightgrey" />
<text x="55" y="215.71428571428572" font-size="10" text-anchor="end" dominant-baseline="middle" font-family="Arial">1400</text>
<path d="M60,181.42857142857144 L490,181.42857142857144" stroke="lightgrey" />
<text x="55" y="181.42857142857144" font-size="10" text-anchor="end" dominant-baseline="middle" font-family="Arial">1450</text>
<path d="M60,147.14285714285717 L490,147.14285714285717" stroke="lightgrey" />
<text x="55" y="147.14285714285717" font-size="10" text-anchor="end" dominant-baseline="middle" font-family="Arial">1500</text>
<path d="M60,112.85714285714286 L490,112.85714285714286" stroke="lightgrey" />
<text x="55" y="112.85714285714286" font-size="10" text-anchor="end" dominant-baseline="middle" font-family="Arial">1550</text>
<path d="M60,78.57142857142856 L490,78.57142857142856" stroke="lightgrey" />
<text x="55" y="78.57142857142856" font-size="10" text-anchor="end" dominant-baseline="middle" font-family="Arial">1600</text>
<path d="M60,44.285714285714306 L490,44.285714285714306" stroke="lightgrey" />
<text x="55" y="44.285714285714306" font-size="10" text-anchor="end" dominant-baseline="middle" font-family="Arial">1650</text>
<path d="M60,10 L490,10 L490,250 L60,250 Z" fill="none" stroke="black" id="axes" />
<text x="275.0" y="275.0" font-size="16" text-anchor="middle" dominant-baseline="hanging" font-family="Arial">Points For</text>
<text x="10" y="130.0" font-size="16" text-anchor="middle" dominant-baseline="hanging" transform="rotate(-90, 10, 130.0)" font-family="Arial">Points Against</text>
<circle cx="421.1808888888889" cy="227.87885714285716" r="4" fill="#b15928" stroke="black" stroke-width="1.5" />
<circle cx="453.7462222222222" cy="152.75200000000004" r="4" fill="sandybrown" stroke="black" stroke-width="1.5" />
<circle cx="447.8026666666666" cy="144.5782857142857" r="4" fill="#33a02c" stroke="black" stroke-width="1.5" />
<circle cx="477.32933333333335" cy="139.1748571428572" r="4" fill="#DA5CB4" stroke="black" stroke-width="1.5" />
<circle cx="392.81999999999994" cy="158.6217142857143" r="4" fill="#e31a1c" stroke="black" stroke-width="1.5" />
<circle cx="387.5453333333333" cy="125.6388571428572" r="4" fill="#cec962" stroke="black" stroke-width="1.5" />
<circle cx="314.3115555555556" cy="154.27428571428578" r="4" fill="gold" stroke="black" stroke-width="1.5" />
<circle cx="417.5115555555556" cy="79.28457142857141" r="4" fill="cornflowerblue" stroke="black" stroke-width="1.5" />
<circle cx="413.8613333333333" cy="18.242285714285714" r="4" fill="#ff7f00" stroke="black" stroke-width="1.5" />
<circle cx="406.00666666666655" cy="43.8331428571428" r="4" fill="#fb9a99" stroke="black" stroke-width="1.5" />
<circle cx="323.7333333333333" cy="174.21485714285717" r="4" fill="darkblue" stroke="black" stroke-width="1.5" />
<circle cx="75.6711111111112" cy="80.61485714285715" r="4" fill="#6a3d9a" stroke="black" stroke-width="1.5" />
</svg>