<?xml version="1.0" encoding="UTF-8"?>
<svg xmlns="http://www.w3.org/2000/svg" xmlns:xlink="http://www.w3.org/1999/xlink"
     width="500" height="300" viewBox="0 0 500 300">
<defs>
</defs>
<path d="M0,0 L500,0 L500,300 L0,300 Z" fill="white" id="border" />
<path d="M103.0,10 L103.0,250" stroke="lightgrey" />
<text x="103.0" y="255" font-size="10" text-anchor="middle" dominant-baseline="hanging" font-family="Arial">1450</text>
<path d="M146.0,10 L146.0,250" stroke="lightgrey" />
<text x="146.0" y="255" font-size="10" text-anchor="middle" dominant-baseline="hanging" font-family="Arial">1500</text>
<path d="M189.0,10 L189.0,250" stroke="lightgrey" />
<text x="189.0" y="255" font-size="10" text-anchor="middle" dominant-baseline="hanging" font-family="Arial">1550</text>
<path d="M232.0,10 L232.0,250" stroke="lightgrey" />
<text x="232.0" y="255" font-size="10" text-anchor="middle" dominant-baseline="hanging" font-family="Arial">1600</text>
<path d="M275.0,10 L275.0,250" stroke="lightgrey" />
<text x="275.0" y="255" font-size="10" text-anchor="middle" dominant-baseline="hanging" font-family="Arial">1650</text>
<path d="M318.0,10 L318.0,250" stroke="lightgrey" />
<text x="318.0" y="255" font-size="10" text-anchor="middle" dominant-baseline="hanging" font-family="Arial">1700</text>
<path d="M361.0,10 L361.0,250" stroke="lightgrey" />
<text x="361.0" y="255" font-size="10" text-anchor="middle" dominant-baseline="hanging" font-family="Arial">1750</text>
<path d="M404.0,10 L404.0,250" stroke="lightgrey" />
<text x="404.0" y="255" font-size="10" text-anchor="middle" dominant-baseline="hanging" font-family="Arial">1800</text>
<path d="M447.0,10 L447.0,250" stroke="lightgrey" />
<text x="447.0" y="255" font-size="10" text-anchor="middle" dominant-baseline="hanging" font-family="Arial">1850</text>
<path d="M60,190.0 L490,190.0" stroke="lightgrey" />
<text x="55" y="190.0" font-size="10" text-anchor="end" dominant-baseline="middle" font-family="Arial">1600</text>
<path d="M60,130.0 L490,130.0" stroke="lightgrey" />
<text x="55" y="130.0" font-size="10" text-anchor="end" dominant-baseline="middle" font-family="Arial">1650</text>
<path d="M60,70.0 L490,70.0" stroke="lightgrey" />
<text x="55" y="70.0" font-size="10" text-anchor="end" dominant-baseline="middle" font-family="Arial">1700</text>
<path d="M60,10 L490,10 L490,250 L60,250 Z" fill="none" stroke="black" id="axes" />
<text x="275.0" y="275.0" font-size="16" text-anchor="middle" dominant-baseline="hanging" font-family="Arial">Points For</text>
<text x="10" y="130.0" font-size="16" text-anchor="middle" dominant-baseline="hanging" transform="rotate(-90, 10, 130.0)" font-family="Arial">Points Against</text>
<circle cx="384.4264" cy="227.6319999999999" r="4" fill="violet" stroke="black" stroke-width="1.5" />
<circle cx="466.93480000000005" cy="91.624" r="4" fill="cornflowerblue" stroke="black" stroke-width="1.5" />
<circle cx="465.98879999999997" cy="124.76800000000013" r="4" fill="#b15928" stroke="black" stroke-width="1.5" />
<circle cx="284.8384000000001" cy="241.50400000000008" r="4" fill="sandybrown" stroke="black" stroke-width="1.5" />
<circle cx="371.3544" cy="105.75999999999996" r="4" fill="gold" stroke="black" stroke-width="1.5" />
<circle cx="239.0004000000001" cy="170.05600000000013" r="4" fill="#33a02c" stroke="black" stroke-width="1.5" />
<circle cx="235.83560000000003" cy="231.73599999999996" r="4" fill="lightgreen" stroke="black" stroke-width="1.5" />
<circle cx="180.79560000000004" cy="60.71199999999999" r="4" fill="#6a3d9a" stroke="black" stroke-width="1.5" />
<circle cx="328.9392" cy="91.6" r="4" fill="#ff7f00" stroke="black" stroke-width="1.5" />
<circle cx="118.99599999999992" cy="169.74399999999986" r="4" fill="#e31a1c" stroke="black" stroke-width="1.5" />
<circle cx="100.12760000000007" cy="44.176000000000016" r="4" fill="#fb9a99" stroke="black" stroke-width="1.5" />
<circle cx="71.7131999999999" cy="71.9199999999999" r="4" fill="darkblue" stroke="black" stroke-width="1.5" />
</svg>