<?xml version="1.0" encoding="UTF-8"?>
<svg xmlns="http://www.w3.org/2000/svg" xmlns:xlink="http://www.w3.org/1999/xlink"
     width="500" height="300" viewBox="0 0 500 300">
<defs>
</defs>
<path d="M0,0 L500,0 L500,300 L0,300 Z" fill="white" id="border" />
<path d="M113.75,10 L113.75,250" stroke="lightgrey" />
<text x="113.75" y="255" font-size="10" text-anchor="middle" dominant-baseline="hanging" font-family="Arial">1600</text>
<path d="M167.5,10 L167.5,250" stroke="lightgrey" />
<text x="167.5" y="255" font-size="10" text-anchor="middle" dominant-baseline="hanging" font-family="Arial">1650</text>
<path d="M221.25,10 L221.25,250" stroke="lightgrey" />
<text x="221.25" y="255" font-size="10" text-anchor="middle" dominant-baseline="hanging" font-family="Arial">1700</text>
<path d="M275.0,10 L275.0,250" stroke="lightgrey" />
<text x="275.0" y="255" font-size="10" text-anchor="middle" dominant-baseline="hanging" font-family="Arial">1750</text>
<path d="M328.75,10 L328.75,250" stroke="lightgrey" />
<text x="328.75" y="255" font-size="10" text-anchor="middle" dominant-baseline="hanging" font-family="Arial">1800</text>
<path d="M382.5,10 L382.5,250" stroke="lightgrey" />
<text x="382.5" y="255" font-size="10" text-anchor="middle" dominant-baseline="hanging" font-family="Arial">1850</text>
<path d="M436.25,10 L436.25,250" stroke="lightgrey" />
<text x="436.25" y="255" font-size="10" text-anchor="middle" dominant-baseline="hanging" font-family="Arial">1900</text>
<path d="M60,215.71428571428572 L490,215.71428571428572" stroke="lightgrey" />
<text x="55" y="215.71428571428572" font-size="10" text-anchor="end" dominant-baseline="middle" font-family="Arial">1600</text>
<path d="M60,181.42857142857144 L490,181.42857142857144" stroke="lightgrey" />
<text x="55" y="181.42857142857144" font-size="10" text-anchor="end" dominant-baseline="middle" font-family="Arial">1650</text>
<path d="M60,147.14285714285717 L490,147.14285714285717" stroke="lightgrey" />
<text x="55" y="147.14285714285717" font-size="10" text-anchor="end" dominant-baseline="middle" font-family="Arial">1700</text>
<path d="M60,112.85714285714286 L490,112.85714285714286" stroke="lightgrey" />
<text x="55" y="112.85714285714286" font-size="10" text-anchor="end" dominant-baseline="middle" font-family="Arial">1750</text>
<path d="M60,78.57142857142856 L490,78.57142857142856" stroke="lightgrey" />
<text x="55" y="78.57142857142856" font-size="10" text-anchor="end" dominant-baseline="middle" font-family="Arial">1800</text>
<path d="M60,44.285714285714306 L490,44.285714285714306" stroke="lightgrey" />
<text x="55" y="44.285714285714306" font-size="10" text-anchor="end" dominant-baseline="middle" font-family="Arial">1850</text>
<path d="M60,10 L490,10 L490,250 L60,250 Z" fill="none" stroke="black" id="axes" />
<text x="275.0" y="275.0" font-size="16" text-anchor="middle" dominant-baseline="hanging" font-family="Arial">Points For</text>
<text x="10" y="130.0" font-size="16" text-anchor="middle" dominant-baseline="hanging" transform="rotate(-90, 10, 130.0)" font-family="Arial">Points Against</text>
<circle cx="437.90549999999996" cy="109.29142857142855" r="4" fill="cornflowerblue" stroke="black" stroke-width="1.5" />
<circle cx="275.64499999999987" cy="165.4514285714286" r="4" fill="sandybrown" stroke="black" stroke-width="1.5" />
<circle cx="388.11150000000004" cy="177.91771428571434" r="4" fill="#e31a1c" stroke="black" stroke-width="1.5" />
<circle cx="287.72799999999995" cy="176.94400000000002" r="4" fill="#ff7f00" stroke="black" stroke-width="1.5" />
<circle cx="229.52750000000003" cy="220.7885714285715" r="4" fill="gold" stroke="black" stroke-width="1.5" />
<circle cx="153.05199999999996" cy="152.5874285714286" r="4" fill="#33a02c" stroke="black" stroke-width="1.5" />
<circle cx="293.87699999999995" cy="64.25371428571421" r="4" fill="#b15928" stroke="black" stroke-width="1.5" />
<circle cx="133.12149999999997" cy="81.65714285714287" r="4" fill="#fb9a99" stroke="black" stroke-width="1.5" />
<circle cx="76.49049999999991" cy="150.0091428571429" r="4" fill="darkblue" stroke="black" stroke-width="1.5" />
<circle cx="190.16099999999992" cy="11.069714285714241" r="4" fill="#6a3d9a" stroke="black" stroke-width="1.5" />
</svg>