<?xml version="1.0" encoding="UTF-8"?>
<svg xmlns="http://www.w3.org/2000/svg" xmlns:xlink="http://www.w3.org/1999/xlink"
     width="500" height="300" viewBox="0 0 500 300">
<defs>
</defs>
<path d="M0,0 L500,0 L500,300 L0,300 Z" fill="white" id="border" />
<path d="M107.77777777777777,10 L107.77777777777777,250" stroke="lightgrey" />
<text x="107.77777777777777" y="255" font-size="10" text-anchor="middle" dominant-baseline="hanging" font-family="Arial">1400</text>
<path d="M155.55555555555554,10 L155.55555555555554,250" stroke="lightgrey" />
<text x="155.55555555555554" y="255" font-size="10" text-anchor="middle" dominant-baseline="hanging" font-family="Arial">1450</text>
<path d="M203.33333333333331,10 L203.33333333333331,250" stroke="lightgrey" />
<text x="203.33333333333331" y="255" font-size="10" text-anchor="middle" dominant-baseline="hanging" font-family="Arial">1500</text>
<path d="M251.11111111111111,10 L251.11111111111111,250" stroke="lightgrey" />
<text x="251.11111111111111" y="255" font-size="10" text-anchor="middle" dominant-baseline="hanging" font-family="Arial">1550</text>
<path d="M298.8888888888889,10 L298.8888888888889,250" stroke="lightgrey" />
<text x="298.8888888888889" y="255" font-size="10" text-anchor="middle" dominant-baseline="hanging" font-family="Arial">1600</text>
<path d="M346.66666666666663,10 L346.66666666666663,250" stroke="lightgrey" />
<text x="346.66666666666663" y="255" font-size="10" text-anchor="middle" dominant-baseline="hanging" font-family="Arial">1650</text>
<path d="M394.44444444444446,10 L394.44444444444446,250" stroke="lightgrey" />
<text x="394.44444444444446" y="255" font-size="10" text-anchor="middle" dominant-baseline="hanging" font-family="Arial">1700</text>
<path d="M442.22222222222223,10 L442.22222222222223,250" stroke="lightgrey" />
<text x="442.22222222222223" y="255" font-size="10" text-anchor="middle" dominant-baseline="hanging" font-family="Arial">1750</text>
<path d="M60,210.0 L490,210.0" stroke="lightgrey" />
<text x="55" y="210.0" font-size="10" text-anchor="end" dominant-baseline="middle" font-family="Arial">1450</text>
<path d="M60,170.0 L490,170.0" stroke="lightgrey" />
<text x="55" y="170.0" font-size="10" text-anchor="end" dominant-baseline="middle" font-family="Arial">1500</text>
<path d="M60,130.0 L490,130.0" stroke="lightgrey" />
<text x="55" y="130.0" font-size="10" text-anchor="end" dominant-baseline="middle" font-family="Arial">1550</text>
<path d="M60,90.0 L490,90.0" stroke="lightgrey" />
<text x="55" y="90.0" font-size="10" text-anchor="end" dominant-baseline="middle" font-family="Arial">1600</text>
<path d="M60,50.0 L490,50.0" stroke="lightgrey" />
<text x="55" y="50.0" font-size="10" text-anchor="end" dominant-baseline="middle" font-family="Arial">1650</text>
<path d="M60,10 L490,10 L490,250 L60,250 Z" fill="none" stroke="black" id="axes" />
<text x="275.0" y="275.0" font-size="16" text-anchor="middle" dominant-baseline="hanging" font-family="Arial">Points For</text>
<text x="10" y="130.0" font-size="16" text-anchor="middle" dominant-baseline="hanging" transform="rotate(-90, 10, 130.0)" font-family="Arial">Points Against</text>
<circle cx="439.35555555555555" cy="112.33600000000004" r="4" fill="sandybrown" stroke="black" stroke-width="1.5" />
<circle cx="321.07688888888896" cy="19.936000000000064" r="4" fill="violet" stroke="black" stroke-width="1.5" />
<circle cx="309.4955555555555" cy="214.11200000000008" r="4" fill="#b15928" stroke="black" stroke-width="1.5" />
<circle cx="298.7742222222223" cy="49.952000000000055" r="4" fill="cornflowerblue" stroke="black" stroke-width="1.5" />
<circle cx="168.32177777777767" cy="180.43199999999996" r="4" fill="#6a3d9a" stroke="black" stroke-width="1.5" />
<circle cx="346.6284444444445" cy="152.38400000000001" r="4" fill="#33a02c" stroke="black" stroke-width="1.5" />
<circle cx="344.25866666666667" cy="106.36800000000002" r="4" fill="#e31a1c" stroke="black" stroke-width="1.5" />
<circle cx="261.048888888889" cy="54.01599999999996" r="4" fill="#fb9a99" stroke="black" stroke-width="1.5" />
<circle cx="191.2742222222223" cy="144.35200000000003" r="4" fill="darkblue" stroke="black" stroke-width="1.5" />
<circle cx="233.01288888888882" cy="35.00799999999998" r="4" fill="gold" stroke="black" stroke-width="1.5" />
<circle cx="402.7768888888889" cy="42.208" r="4" fill="#ff7f00" stroke="black" stroke-width="1.5" />
<circle cx="104.24222222222218" cy="108.208" r="4" fill="lightgreen" stroke="black" stroke-width="1.5" />
</svg>