<?xml version="1.0" encoding="UTF-8"?>
<svg xmlns="http://www.w3.org/2000/svg" xmlns:xlink="http://www.w3.org/1999/xlink"
     width="500" height="300" viewBox="0 0 500 300">
<defs>
</defs>
<path d="M0,0 L500,0 L500,300 L0,300 Z" fill="white" id="border" />
<path d="M113.75,10 L113.75,250" stroke="lightgrey" />
<text x="113.75" y="255" font-size="10" text-anchor="middle" dominant-baseline="hanging" font-family="Arial">1500</text>
<path d="M167.5,10 L167.5,250" stroke="lightgrey" />
<text x="167.5" y="255" font-size="10" text-anchor="middle" dominant-baseline="hanging" font-family="Arial">1550</text>
<path d="M221.25,10 L221.25,250" stroke="lightgrey" />
<text x="221.25" y="255" font-size="10" text-anchor="middle" dominant-baseline="hanging" font-family="Arial">1600</text>
<path d="M275.0,10 L275.0,250" stroke="lightgrey" />
<text x="275.0" y="255" font-size="10" text-anchor="middle" dominant-baseline="hanging" font-family="Arial">1650</text>
<path d="M328.75,10 L328.75,250" stroke="lightgrey" />
<text x="328.75" y="255" font-size="10" text-anchor="middle" dominant-baseline="hanging" font-family="Arial">1700</text>
<path d="M382.5,10 L382.5,250" stroke="lightgrey" />
<text x="382.5" y="255" font-size="10" text-anchor="middle" dominant-baseline="hanging" font-family="Arial">1750</text>
<path d="M436.25,10 L436.25,250" stroke="lightgrey" />
<text x="436.25" y="255" font-size="10" text-anchor="middle" dominant-baseline="hanging" font-family="Arial">1800</text>
<path d="M60,215.71428571428572 L490,215.71428571428572" stroke="lightgrey" />
<text x="55" y="215.71428571428572" font-size="10" text-anchor="end" dominant-baseline="middle" font-family="Arial">1500</text>
<path d="M60,181.42857142857144 L490,181.42857142857144" stroke="lightgrey" />
<text x="55" y="181.42857142857144" font-size="10" text-anchor="end" dominant-baseline="middle" font-family="Arial">1550</text>
<path d="M60,147.14285714285717 L490,147.14285714285717" stroke="lightgrey" />
<text x="55" y="147.14285714285717" font-size="10" text-anchor="end" dominant-baseline="middle" font-family="Arial">1600</text>
<path d="M60,112.85714285714286 L490,112.85714285714286" stroke="lightgrey" />
<text x="55" y="112.85714285714286" font-size="10" text-anchor="end" dominant-baseline="middle" font-family="Arial">1650</text>
<path d="M60,78.57142857142856 L490,78.57142857142856" stroke="lightgrey" />
<text x="55" y="78.57142857142856" font-size="10" text-anchor="end" dominant-baseline="middle" font-family="Arial">1700</text>
<path d="M60,44.285714285714306 L490,44.285714285714306" stroke="lightgrey" />
<text x="55" y="44.285714285714306" font-size="10" text-anchor="end" dominant-baseline="middle" font-family="Arial">1750</text>
<path d="M60,10 L490,10 L490,250 L60,250 Z" fill="none" stroke="black" id="axes" />
<text x="275.0" y="275.0" font-size="16" text-anchor="middle" dominant-baseline="hanging" font-family="Arial">Points For</text>
<text x="10" y="130.0" font-size="16" text-anchor="middle" dominant-baseline="hanging" transform="rotate(-90, 10, 130.0)" font-family="Arial">Points Against</text>
<circle cx="437.6904999999999" cy="245.68000000000004" r="4" fill="#e31a1c" stroke="black" stroke-width="1.5" />
<circle cx="423.15649999999994" cy="189.06742857142865" r="4" fill="#b15928" stroke="black" stroke-width="1.5" />
<circle cx="194.18149999999991" cy="208.336" r="4" fill="#6a3d9a" stroke="black" stroke-width="1.5" />
<circle cx="299.3164999999999" cy="193.42857142857144" r="4" fill="cornflowerblue" stroke="black" stroke-width="1.5" />
<circle cx="195.2779999999999" cy="101.83085714285718" r="4" fill="#fb9a99" stroke="black" stroke-width="1.5" />
<circle cx="436.6800000000001" cy="81.02628571428568" r="4" fill="violet" stroke="black" stroke-width="1.5" />
<circle cx="199.3199999999999" cy="99.51314285714284" r="4" fill="#33a02c" stroke="black" stroke-width="1.5" />
<circle cx="317.484" cy="101.15885714285719" r="4" fill="sandybrown" stroke="black" stroke-width="1.5" />
<circle cx="109.72949999999999" cy="113.9268571428571" r="4" fill="#ff7f00" stroke="black" stroke-width="1.5" />
<circle cx="101.19399999999993" cy="79.22971428571432" r="4" fill="gold" stroke="black" stroke-width="1.5" />
<circle cx="150.60099999999997" cy="33.06742857142865" r="4" fill="lightgreen" stroke="black" stroke-width="1.5" />
<circle cx="123.7045" cy="106.82285714285717" r="4" fill="darkblue" stroke="black" stroke-width="1.5" />
</svg>